name C:\Users\u0101727\Documents\MyRepositories\upper-imu-dc\OpenSim\subject0\MA\ResultsMA\grid_4nodes_9dim\angles_8.mot
datacolumns 10
datarows 28
range 800.01000000 800.28000000
endheader 
time	clav_prot	clav_elev	scapula_abduction	scapula_elevation	scapula_upward_rot	scapula_winging	plane_elv	shoulder_elv	axial_rot	
        800.01000000	        -50.00000000	        -10.00000000	        -40.00000000	          3.33333333	          0.00000000	          0.00000000	         90.00000000	        -10.00000000	        -30.00000000	
        800.02000000	        -38.33333333	        -10.00000000	        -40.00000000	          3.33333333	          0.00000000	          0.00000000	         90.00000000	        -10.00000000	        -30.00000000	
        800.03000000	        -26.66666667	        -10.00000000	        -40.00000000	          3.33333333	          0.00000000	          0.00000000	         90.00000000	        -10.00000000	        -30.00000000	
        800.04000000	        -15.00000000	        -10.00000000	        -40.00000000	          3.33333333	          0.00000000	          0.00000000	         90.00000000	        -10.00000000	        -30.00000000	
        800.05000000	        -50.00000000	          0.00000000	        -40.00000000	          3.33333333	          0.00000000	          0.00000000	         90.00000000	        -10.00000000	        -30.00000000	
        800.06000000	        -38.33333333	          0.00000000	        -40.00000000	          3.33333333	          0.00000000	          0.00000000	         90.00000000	        -10.00000000	        -30.00000000	
        800.07000000	        -26.66666667	          0.00000000	        -40.00000000	          3.33333333	          0.00000000	          0.00000000	         90.00000000	        -10.00000000	        -30.00000000	
        800.08000000	        -15.00000000	          0.00000000	        -40.00000000	          3.33333333	          0.00000000	          0.00000000	         90.00000000	        -10.00000000	        -30.00000000	
        800.09000000	        -50.00000000	         10.00000000	        -40.00000000	          3.33333333	          0.00000000	          0.00000000	         90.00000000	        -10.00000000	        -30.00000000	
        800.10000000	        -38.33333333	         10.00000000	        -40.00000000	          3.33333333	          0.00000000	          0.00000000	         90.00000000	        -10.00000000	        -30.00000000	
        800.11000000	        -26.66666667	         10.00000000	        -40.00000000	          3.33333333	          0.00000000	          0.00000000	         90.00000000	        -10.00000000	        -30.00000000	
        800.12000000	        -15.00000000	         10.00000000	        -40.00000000	          3.33333333	          0.00000000	          0.00000000	         90.00000000	        -10.00000000	        -30.00000000	
        800.13000000	        -50.00000000	         20.00000000	        -40.00000000	          3.33333333	          0.00000000	          0.00000000	         90.00000000	        -10.00000000	        -30.00000000	
        800.14000000	        -38.33333333	         20.00000000	        -40.00000000	          3.33333333	          0.00000000	          0.00000000	         90.00000000	        -10.00000000	        -30.00000000	
        800.15000000	        -26.66666667	         20.00000000	        -40.00000000	          3.33333333	          0.00000000	          0.00000000	         90.00000000	        -10.00000000	        -30.00000000	
        800.16000000	        -15.00000000	         20.00000000	        -40.00000000	          3.33333333	          0.00000000	          0.00000000	         90.00000000	        -10.00000000	        -30.00000000	
        800.17000000	        -50.00000000	        -10.00000000	        -21.66666667	          3.33333333	          0.00000000	          0.00000000	         90.00000000	        -10.00000000	        -30.00000000	
        800.18000000	        -38.33333333	        -10.00000000	        -21.66666667	          3.33333333	          0.00000000	          0.00000000	         90.00000000	        -10.00000000	        -30.00000000	
        800.19000000	        -26.66666667	        -10.00000000	        -21.66666667	          3.33333333	          0.00000000	          0.00000000	         90.00000000	        -10.00000000	        -30.00000000	
        800.20000000	        -15.00000000	        -10.00000000	        -21.66666667	          3.33333333	          0.00000000	          0.00000000	         90.00000000	        -10.00000000	        -30.00000000	
        800.21000000	        -50.00000000	          0.00000000	        -21.66666667	          3.33333333	          0.00000000	          0.00000000	         90.00000000	        -10.00000000	        -30.00000000	
        800.22000000	        -38.33333333	          0.00000000	        -21.66666667	          3.33333333	          0.00000000	          0.00000000	         90.00000000	        -10.00000000	        -30.00000000	
        800.23000000	        -26.66666667	          0.00000000	        -21.66666667	          3.33333333	          0.00000000	          0.00000000	         90.00000000	        -10.00000000	        -30.00000000	
        800.24000000	        -15.00000000	          0.00000000	        -21.66666667	          3.33333333	          0.00000000	          0.00000000	         90.00000000	        -10.00000000	        -30.00000000	
        800.25000000	        -50.00000000	         10.00000000	        -21.66666667	          3.33333333	          0.00000000	          0.00000000	         90.00000000	        -10.00000000	        -30.00000000	
        800.26000000	        -38.33333333	         10.00000000	        -21.66666667	          3.33333333	          0.00000000	          0.00000000	         90.00000000	        -10.00000000	        -30.00000000	
        800.27000000	        -26.66666667	         10.00000000	        -21.66666667	          3.33333333	          0.00000000	          0.00000000	         90.00000000	        -10.00000000	        -30.00000000	
        800.28000000	        -15.00000000	         10.00000000	        -21.66666667	          3.33333333	          0.00000000	          0.00000000	         90.00000000	        -10.00000000	        -30.00000000	
